<?xml version="1.0" encoding="UTF-8"?>
<svg id="Layer_2" data-name="Layer 2" xmlns="http://www.w3.org/2000/svg" width="24" height="24.01" viewBox="0 0 24 24.01">
  <defs>
    <style>
      .cls-1 {
        fill: #535252;
      }
    </style>
  </defs>
  <g id="Layer_1-2" data-name="Layer 1">
    <path class="cls-1" d="M13.92,23.99v-.16c0-2.72,0-5.44,0-8.16,0-.14,.04-.18,.18-.18,.81,0,1.63,0,2.45,0,.23,0,.23,0,.26-.24,.06-.45,.14-.9,.21-1.34,.09-.59,.19-1.18,.28-1.77,0-.02,0-.05,0-.09h-3.38v-.14c0-.71,.01-1.42,.03-2.13,0-.23,.04-.46,.1-.67,.18-.61,.61-.94,1.21-1.06,.25-.05,.5-.05,.76-.06,.42,0,.83,0,1.26,0,0-.08,.01-.14,.01-.21,0-.87,0-1.75,0-2.62,0-.25,0-.26-.24-.28-.8-.08-1.6-.19-2.4-.21-.9-.02-1.77,.16-2.57,.63-1.02,.61-1.62,1.52-1.88,2.67-.13,.54-.17,1.1-.17,1.65,0,.76,0,1.53,0,2.29,0,.12-.05,.14-.15,.14-.92,0-1.84,0-2.77,0h-.2v.21c0,1.03,0,2.06,0,3.09,0,.14,.07,.14,.17,.14,.89,0,1.79,0,2.68,0,.33,0,.27,0,.27,.26v8.11s0,.08-.01,.13c-2.21-.38-4.17-1.29-5.85-2.76C1.75,19.11,.34,16.42,.05,13.19-.57,6.17,4.69,.5,11.09,.03c6.9-.5,12.59,4.84,12.89,11.43,.32,6.93-4.85,11.78-10.07,12.53h0Z"/>
  </g>
</svg>