<?xml version="1.0" encoding="UTF-8"?>
<svg id="Layer_2" data-name="Layer 2" xmlns="http://www.w3.org/2000/svg" width="24" height="24" viewBox="0 0 24 24">
  <defs>
    <style>
      .cls-1 {
        fill: #535252;
      }
    </style>
  </defs>
  <g id="Layer_1-2" data-name="Layer 1">
    <path class="cls-1" d="M7.03,.08c-1.28,.06-2.15,.26-2.91,.56-.79,.31-1.46,.72-2.12,1.39-.67,.67-1.07,1.34-1.38,2.13-.3,.76-.5,1.64-.55,2.91C0,8.35,0,8.76,0,12.02c0,3.26,.02,3.67,.08,4.95,.06,1.28,.26,2.15,.56,2.91,.31,.79,.72,1.46,1.39,2.12,.67,.67,1.34,1.07,2.13,1.38,.76,.3,1.64,.5,2.91,.55,1.28,.06,1.69,.07,4.95,.06,3.26,0,3.67-.02,4.95-.08,1.28-.06,2.15-.27,2.91-.56,.79-.31,1.46-.72,2.12-1.39,.67-.67,1.07-1.34,1.38-2.13,.3-.76,.5-1.64,.55-2.91,.06-1.28,.07-1.69,.06-4.95,0-3.26-.02-3.67-.08-4.95-.06-1.28-.26-2.15-.56-2.91-.31-.79-.72-1.46-1.39-2.12-.67-.67-1.34-1.08-2.13-1.38-.76-.3-1.64-.5-2.91-.55C15.65,0,15.24,0,11.98,0c-3.26,0-3.67,.02-4.95,.08Zm.14,21.69c-1.17-.05-1.81-.25-2.23-.41-.56-.22-.96-.48-1.38-.89-.42-.42-.68-.82-.9-1.38-.16-.42-.36-1.06-.42-2.23-.06-1.26-.07-1.64-.08-4.85,0-3.2,0-3.58,.06-4.85,.05-1.17,.25-1.81,.41-2.23,.22-.56,.48-.96,.89-1.38,.42-.42,.82-.68,1.38-.9,.42-.17,1.06-.36,2.23-.42,1.27-.06,1.64-.07,4.85-.08,3.2,0,3.58,0,4.85,.06,1.17,.05,1.81,.24,2.23,.41,.56,.22,.96,.48,1.38,.89,.42,.42,.68,.82,.9,1.38,.17,.42,.36,1.06,.42,2.23,.06,1.27,.07,1.64,.08,4.85,0,3.2,0,3.58-.06,4.85-.05,1.17-.25,1.81-.41,2.23-.22,.56-.48,.96-.9,1.38-.42,.42-.82,.68-1.38,.9-.42,.16-1.06,.36-2.23,.42-1.27,.06-1.64,.07-4.85,.08-3.2,0-3.58,0-4.85-.06ZM16.95,5.59c0,.28,.09,.56,.24,.8,.16,.24,.38,.42,.65,.53,.26,.11,.55,.14,.83,.08,.28-.06,.54-.19,.74-.4,.2-.2,.34-.46,.39-.74,.06-.28,.03-.57-.08-.83-.11-.26-.29-.49-.53-.65-.24-.16-.52-.24-.8-.24-.38,0-.75,.15-1.02,.42-.27,.27-.42,.64-.42,1.02ZM5.84,12.01c0,3.4,2.77,6.16,6.17,6.15,3.4,0,6.16-2.77,6.15-6.17,0-3.4-2.77-6.16-6.17-6.15-3.4,0-6.16,2.77-6.15,6.17Zm2.16,0c0-.79,.23-1.56,.67-2.22,.44-.66,1.06-1.17,1.79-1.48,.73-.3,1.53-.39,2.31-.23,.78,.15,1.49,.53,2.05,1.09,.56,.56,.94,1.27,1.1,2.05,.16,.78,.08,1.58-.22,2.31-.3,.73-.81,1.36-1.47,1.8-.66,.44-1.43,.68-2.22,.68-.53,0-1.05-.1-1.53-.3-.49-.2-.93-.49-1.3-.86-.37-.37-.67-.81-.87-1.3-.2-.48-.31-1-.31-1.53Z"/>
  </g>
</svg>